<mxfile host="app.diagrams.net" modified="2023-06-18T12:31:27.173Z" agent="Mozilla/5.0 (Windows NT 10.0; Win64; x64) AppleWebKit/537.36 (KHTML, like Gecko) Chrome/109.0.0.0 Safari/537.36" etag="4ezEmozjA740emEG7UP9" version="21.3.7" type="device">
  <diagram name="Страница 1" id="Vr6tZi-SWmV44EtBOcXa">
    <mxGraphModel dx="1434" dy="830" grid="0" gridSize="10" guides="1" tooltips="1" connect="1" arrows="1" fold="1" page="0" pageScale="1" pageWidth="827" pageHeight="1169" math="0" shadow="0">
      <root>
        <mxCell id="0" />
        <mxCell id="1" parent="0" />
        <mxCell id="Df-UxoeK4fdWZhwMRgBq-1" value="&lt;b&gt;Пользователь&lt;/b&gt;" style="shape=umlActor;verticalLabelPosition=bottom;verticalAlign=top;html=1;outlineConnect=0;" parent="1" vertex="1">
          <mxGeometry x="456" y="28" width="51" height="80" as="geometry" />
        </mxCell>
        <mxCell id="Df-UxoeK4fdWZhwMRgBq-4" value="Настройка главной страницы" style="ellipse;whiteSpace=wrap;html=1;" parent="1" vertex="1">
          <mxGeometry x="605" y="33" width="150" height="70" as="geometry" />
        </mxCell>
        <mxCell id="Df-UxoeK4fdWZhwMRgBq-6" value="Изменение оформления" style="ellipse;whiteSpace=wrap;html=1;" parent="1" vertex="1">
          <mxGeometry x="852" y="115" width="150" height="70" as="geometry" />
        </mxCell>
        <mxCell id="Df-UxoeK4fdWZhwMRgBq-7" value="Изменение &lt;br&gt;отображаемой информации" style="ellipse;whiteSpace=wrap;html=1;" parent="1" vertex="1">
          <mxGeometry x="695" y="210" width="150" height="70" as="geometry" />
        </mxCell>
        <mxCell id="Df-UxoeK4fdWZhwMRgBq-16" value="" style="endArrow=none;html=1;rounded=0;startArrow=classic;startFill=1;endFill=0;dashed=1;" parent="1" source="Df-UxoeK4fdWZhwMRgBq-4" target="Df-UxoeK4fdWZhwMRgBq-6" edge="1">
          <mxGeometry width="50" height="50" relative="1" as="geometry">
            <mxPoint x="550" y="190" as="sourcePoint" />
            <mxPoint x="650" y="150" as="targetPoint" />
          </mxGeometry>
        </mxCell>
        <mxCell id="Df-UxoeK4fdWZhwMRgBq-17" value="" style="endArrow=none;html=1;rounded=0;entryX=0.5;entryY=0;entryDx=0;entryDy=0;startArrow=classic;startFill=1;endFill=0;dashed=1;exitX=0.727;exitY=0.929;exitDx=0;exitDy=0;exitPerimeter=0;" parent="1" source="Df-UxoeK4fdWZhwMRgBq-4" target="Df-UxoeK4fdWZhwMRgBq-7" edge="1">
          <mxGeometry width="50" height="50" relative="1" as="geometry">
            <mxPoint x="651" y="101" as="sourcePoint" />
            <mxPoint x="440" y="360" as="targetPoint" />
          </mxGeometry>
        </mxCell>
        <mxCell id="Df-UxoeK4fdWZhwMRgBq-19" value="" style="endArrow=classic;html=1;rounded=0;exitX=0.5;exitY=0.5;exitDx=0;exitDy=0;exitPerimeter=0;" parent="1" source="Df-UxoeK4fdWZhwMRgBq-1" target="Df-UxoeK4fdWZhwMRgBq-4" edge="1">
          <mxGeometry width="50" height="50" relative="1" as="geometry">
            <mxPoint x="390" y="410" as="sourcePoint" />
            <mxPoint x="440" y="360" as="targetPoint" />
          </mxGeometry>
        </mxCell>
        <mxCell id="Df-UxoeK4fdWZhwMRgBq-21" value="Планирование дел в соответствии с погодой" style="ellipse;whiteSpace=wrap;html=1;" parent="1" vertex="1">
          <mxGeometry x="189" y="140" width="150" height="70" as="geometry" />
        </mxCell>
        <mxCell id="Df-UxoeK4fdWZhwMRgBq-22" value="Ввод данных погоды" style="ellipse;whiteSpace=wrap;html=1;" parent="1" vertex="1">
          <mxGeometry x="563" y="115" width="150" height="70" as="geometry" />
        </mxCell>
        <mxCell id="Df-UxoeK4fdWZhwMRgBq-23" value="Авторизация в системе" style="ellipse;whiteSpace=wrap;html=1;" parent="1" vertex="1">
          <mxGeometry x="118" y="384" width="150" height="70" as="geometry" />
        </mxCell>
        <mxCell id="Df-UxoeK4fdWZhwMRgBq-24" value="Просмотр погоды за выбранный период" style="ellipse;whiteSpace=wrap;html=1;" parent="1" vertex="1">
          <mxGeometry x="10" y="60" width="150" height="70" as="geometry" />
        </mxCell>
        <mxCell id="Df-UxoeK4fdWZhwMRgBq-25" value="Скачивание погоды в виде таблицы" style="ellipse;whiteSpace=wrap;html=1;" parent="1" vertex="1">
          <mxGeometry x="10" y="140" width="150" height="70" as="geometry" />
        </mxCell>
        <mxCell id="Df-UxoeK4fdWZhwMRgBq-26" value="Просмотр погоды" style="ellipse;whiteSpace=wrap;html=1;" parent="1" vertex="1">
          <mxGeometry x="208" y="33" width="150" height="70" as="geometry" />
        </mxCell>
        <mxCell id="Df-UxoeK4fdWZhwMRgBq-28" value="" style="endArrow=classic;html=1;rounded=0;exitX=0;exitY=0.5;exitDx=0;exitDy=0;dashed=1;" parent="1" source="Df-UxoeK4fdWZhwMRgBq-26" target="Df-UxoeK4fdWZhwMRgBq-24" edge="1">
          <mxGeometry width="50" height="50" relative="1" as="geometry">
            <mxPoint x="400" y="420" as="sourcePoint" />
            <mxPoint x="450" y="370" as="targetPoint" />
          </mxGeometry>
        </mxCell>
        <mxCell id="Df-UxoeK4fdWZhwMRgBq-29" value="" style="endArrow=none;html=1;rounded=0;exitX=0;exitY=1;exitDx=0;exitDy=0;entryX=1;entryY=0;entryDx=0;entryDy=0;startArrow=classic;startFill=1;endFill=0;dashed=1;" parent="1" source="Df-UxoeK4fdWZhwMRgBq-26" target="Df-UxoeK4fdWZhwMRgBq-25" edge="1">
          <mxGeometry width="50" height="50" relative="1" as="geometry">
            <mxPoint x="410" y="430" as="sourcePoint" />
            <mxPoint x="460" y="380" as="targetPoint" />
          </mxGeometry>
        </mxCell>
        <mxCell id="Df-UxoeK4fdWZhwMRgBq-30" value="" style="endArrow=classic;html=1;rounded=0;exitX=0.5;exitY=0.5;exitDx=0;exitDy=0;exitPerimeter=0;entryX=1;entryY=0.5;entryDx=0;entryDy=0;" parent="1" source="Df-UxoeK4fdWZhwMRgBq-1" target="Df-UxoeK4fdWZhwMRgBq-26" edge="1">
          <mxGeometry width="50" height="50" relative="1" as="geometry">
            <mxPoint x="420" y="440" as="sourcePoint" />
            <mxPoint x="470" y="390" as="targetPoint" />
          </mxGeometry>
        </mxCell>
        <mxCell id="Df-UxoeK4fdWZhwMRgBq-31" value="" style="endArrow=classic;html=1;rounded=0;exitX=0.5;exitY=0.5;exitDx=0;exitDy=0;exitPerimeter=0;entryX=1;entryY=0;entryDx=0;entryDy=0;" parent="1" source="Df-UxoeK4fdWZhwMRgBq-1" target="Df-UxoeK4fdWZhwMRgBq-21" edge="1">
          <mxGeometry width="50" height="50" relative="1" as="geometry">
            <mxPoint x="400" y="130" as="sourcePoint" />
            <mxPoint x="480" y="400" as="targetPoint" />
          </mxGeometry>
        </mxCell>
        <mxCell id="Df-UxoeK4fdWZhwMRgBq-36" value="" style="endArrow=classic;html=1;rounded=0;entryX=0;entryY=0;entryDx=0;entryDy=0;exitX=0.5;exitY=0.5;exitDx=0;exitDy=0;exitPerimeter=0;" parent="1" source="Df-UxoeK4fdWZhwMRgBq-1" target="Df-UxoeK4fdWZhwMRgBq-22" edge="1">
          <mxGeometry width="50" height="50" relative="1" as="geometry">
            <mxPoint x="400" y="170" as="sourcePoint" />
            <mxPoint x="450" y="120" as="targetPoint" />
          </mxGeometry>
        </mxCell>
        <mxCell id="Df-UxoeK4fdWZhwMRgBq-37" value="" style="endArrow=classic;html=1;rounded=0;entryX=0.5;entryY=0;entryDx=0;entryDy=0;dashed=1;" parent="1" target="Df-UxoeK4fdWZhwMRgBq-43" edge="1">
          <mxGeometry width="50" height="50" relative="1" as="geometry">
            <mxPoint x="264" y="210" as="sourcePoint" />
            <mxPoint x="500" y="420" as="targetPoint" />
          </mxGeometry>
        </mxCell>
        <mxCell id="Df-UxoeK4fdWZhwMRgBq-38" value="" style="endArrow=none;html=1;rounded=0;entryX=1;entryY=0;entryDx=0;entryDy=0;exitX=0.027;exitY=0.671;exitDx=0;exitDy=0;exitPerimeter=0;endFill=0;startArrow=classic;startFill=1;dashed=1;" parent="1" source="Df-UxoeK4fdWZhwMRgBq-21" target="Df-UxoeK4fdWZhwMRgBq-44" edge="1">
          <mxGeometry width="50" height="50" relative="1" as="geometry">
            <mxPoint x="190" y="190" as="sourcePoint" />
            <mxPoint x="510" y="430" as="targetPoint" />
          </mxGeometry>
        </mxCell>
        <mxCell id="Df-UxoeK4fdWZhwMRgBq-43" value="Просмотр погоды, &lt;br&gt;которая вероятнее всего будет в выбранное &lt;br&gt;время" style="ellipse;whiteSpace=wrap;html=1;" parent="1" vertex="1">
          <mxGeometry x="170" y="260" width="150" height="70" as="geometry" />
        </mxCell>
        <mxCell id="Df-UxoeK4fdWZhwMRgBq-44" value="Добавление плана на выбранный день и &lt;br&gt;время" style="ellipse;whiteSpace=wrap;html=1;" parent="1" vertex="1">
          <mxGeometry x="30" y="220" width="150" height="70" as="geometry" />
        </mxCell>
        <mxCell id="Df-UxoeK4fdWZhwMRgBq-46" value="&lt;b&gt;Администратор&lt;/b&gt;" style="shape=umlActor;verticalLabelPosition=bottom;verticalAlign=top;html=1;outlineConnect=0;" parent="1" vertex="1">
          <mxGeometry x="423" y="404" width="51" height="80" as="geometry" />
        </mxCell>
        <mxCell id="Df-UxoeK4fdWZhwMRgBq-53" value="" style="endArrow=classic;html=1;rounded=0;entryX=0.033;entryY=0.671;entryDx=0;entryDy=0;entryPerimeter=0;" parent="1" target="Df-UxoeK4fdWZhwMRgBq-63" edge="1">
          <mxGeometry width="50" height="50" relative="1" as="geometry">
            <mxPoint x="447" y="444" as="sourcePoint" />
            <mxPoint x="608" y="264" as="targetPoint" />
          </mxGeometry>
        </mxCell>
        <mxCell id="Df-UxoeK4fdWZhwMRgBq-56" value="" style="endArrow=classic;html=1;rounded=0;exitX=0.5;exitY=0.5;exitDx=0;exitDy=0;exitPerimeter=0;entryX=1;entryY=1;entryDx=0;entryDy=0;" parent="1" source="Df-UxoeK4fdWZhwMRgBq-46" target="Df-UxoeK4fdWZhwMRgBq-23" edge="1">
          <mxGeometry width="50" height="50" relative="1" as="geometry">
            <mxPoint x="588" y="344" as="sourcePoint" />
            <mxPoint x="638" y="294" as="targetPoint" />
          </mxGeometry>
        </mxCell>
        <mxCell id="Df-UxoeK4fdWZhwMRgBq-63" value="Настройка данных в БД" style="ellipse;whiteSpace=wrap;html=1;" parent="1" vertex="1">
          <mxGeometry x="628" y="394" width="150" height="70" as="geometry" />
        </mxCell>
        <mxCell id="Df-UxoeK4fdWZhwMRgBq-69" value="&lt;font style=&quot;font-size: 10px;&quot;&gt;Extend&lt;/font&gt;" style="text;html=1;strokeColor=none;fillColor=none;align=center;verticalAlign=middle;whiteSpace=wrap;rounded=0;rotation=-45;" parent="1" vertex="1">
          <mxGeometry x="150" y="110" width="60" height="30" as="geometry" />
        </mxCell>
        <mxCell id="Df-UxoeK4fdWZhwMRgBq-81" value="&lt;font style=&quot;font-size: 10px;&quot;&gt;Include&lt;/font&gt;" style="text;html=1;strokeColor=none;fillColor=none;align=center;verticalAlign=middle;whiteSpace=wrap;rounded=0;rotation=-60;" parent="1" vertex="1">
          <mxGeometry x="210" y="220" width="60" height="30" as="geometry" />
        </mxCell>
        <mxCell id="Df-UxoeK4fdWZhwMRgBq-83" value="&lt;font style=&quot;font-size: 10px;&quot;&gt;Include&lt;/font&gt;" style="text;html=1;strokeColor=none;fillColor=none;align=center;verticalAlign=middle;whiteSpace=wrap;rounded=0;rotation=-15;" parent="1" vertex="1">
          <mxGeometry x="150" y="55" width="60" height="30" as="geometry" />
        </mxCell>
        <mxCell id="Df-UxoeK4fdWZhwMRgBq-98" value="Получение ближайших дат с данными показателями" style="ellipse;whiteSpace=wrap;html=1;" parent="1" vertex="1">
          <mxGeometry x="540" y="252" width="150" height="70" as="geometry" />
        </mxCell>
        <mxCell id="Df-UxoeK4fdWZhwMRgBq-99" value="" style="endArrow=classic;html=1;rounded=0;exitX=0.5;exitY=1;exitDx=0;exitDy=0;entryX=0.5;entryY=0;entryDx=0;entryDy=0;dashed=1;" parent="1" source="Df-UxoeK4fdWZhwMRgBq-22" target="Df-UxoeK4fdWZhwMRgBq-98" edge="1">
          <mxGeometry width="50" height="50" relative="1" as="geometry">
            <mxPoint x="339" y="270" as="sourcePoint" />
            <mxPoint x="414" y="280" as="targetPoint" />
          </mxGeometry>
        </mxCell>
        <mxCell id="Df-UxoeK4fdWZhwMRgBq-101" value="&lt;font style=&quot;font-size: 10px;&quot;&gt;Include&lt;/font&gt;" style="text;html=1;strokeColor=none;fillColor=none;align=center;verticalAlign=middle;whiteSpace=wrap;rounded=0;rotation=-65;" parent="1" vertex="1">
          <mxGeometry x="580" y="204" width="60" height="30" as="geometry" />
        </mxCell>
        <mxCell id="vT1DjjVH9w5QZMsATd6P-1" value="&lt;font style=&quot;font-size: 10px;&quot;&gt;Extend&lt;/font&gt;" style="text;html=1;strokeColor=none;fillColor=none;align=center;verticalAlign=middle;whiteSpace=wrap;rounded=0;rotation=25;" parent="1" vertex="1">
          <mxGeometry x="764" y="70" width="60" height="30" as="geometry" />
        </mxCell>
        <mxCell id="vT1DjjVH9w5QZMsATd6P-2" value="&lt;font style=&quot;font-size: 10px;&quot;&gt;Extend&lt;/font&gt;" style="text;html=1;strokeColor=none;fillColor=none;align=center;verticalAlign=middle;whiteSpace=wrap;rounded=0;rotation=60;" parent="1" vertex="1">
          <mxGeometry x="720" y="119" width="60" height="30" as="geometry" />
        </mxCell>
        <mxCell id="vT1DjjVH9w5QZMsATd6P-3" value="&lt;font style=&quot;font-size: 10px;&quot;&gt;Extend&lt;/font&gt;" style="text;html=1;strokeColor=none;fillColor=none;align=center;verticalAlign=middle;whiteSpace=wrap;rounded=0;rotation=-45;" parent="1" vertex="1">
          <mxGeometry x="129" y="190" width="60" height="30" as="geometry" />
        </mxCell>
      </root>
    </mxGraphModel>
  </diagram>
</mxfile>
